<?xml version="1.0" encoding="utf-8"?>
<svg xmlns="http://www.w3.org/2000/svg" viewBox="0 0 1010 480">
  <path fill="#ffed00" d="M236.5 4.8a334.1 334.1 0 0 0-113 0C85.6 11.3 36.3 25.2 0 45.5v225.1S0 395.1 180 480c180-84.9 180-209.4 180-209.4V45.5c-36.3-20.3-85.6-34.2-123.5-40.7Z"/>
  <path d="M 82.02 258.844 L 90.72 258.844 L 90.72 235.844 L 57.42 235.844 L 57.42 258.844 L 66.22 258.844 L 66.22 275.844 L 24.72 275.844 L 24.72 258.844 L 34.12 258.844 L 34.12 197.444 L 24.72 197.444 L 24.72 180.444 L 66.12 180.444 L 66.12 197.444 L 57.32 197.444 L 57.32 218.744 L 90.72 218.744 L 90.72 197.444 L 82.02 197.444 L 82.02 180.444 L 123.32 180.444 L 123.32 197.444 L 114.02 197.444 L 114.02 258.844 L 123.32 258.844 L 123.32 275.844 L 82.02 275.844 L 82.02 258.844 Z M 184.62 257.944 C 196.02 257.944 202.32 250.744 202.32 237.444 L 202.32 197.444 L 193.02 197.444 L 193.02 180.444 L 233.52 180.444 L 233.52 197.444 L 224.22 197.444 L 224.22 237.344 C 224.22 262.644 209.82 278.044 183.72 278.044 C 157.62 278.044 143.42 262.644 143.42 237.344 L 143.42 197.344 L 134.12 197.344 L 134.12 180.444 L 176.02 180.444 L 176.02 197.444 L 166.62 197.444 L 166.62 237.444 C 166.62 250.744 173.02 257.944 184.62 257.944 Z M 244.32 258.844 L 253.62 258.844 L 253.62 197.444 L 244.32 197.444 L 244.32 180.444 L 283.92 180.444 L 283.92 197.144 L 276.92 197.144 L 276.92 227.444 L 304.62 197.144 L 295.42 197.144 L 295.42 180.444 L 335.62 180.444 L 335.62 197.444 L 328.62 197.444 L 308.42 219.044 L 331.62 258.744 L 338.22 258.744 L 338.22 275.744 L 297.62 275.744 L 297.62 259.044 L 306.82 259.044 L 292.52 233.644 L 276.32 250.744 L 276.32 259.044 L 283.82 259.044 L 283.82 275.744 L 244.22 275.744 L 244.22 258.744 L 244.32 258.844 Z M 148.92 93.044 L 166.82 90.044 L 175.32 66.444 L 251.52 74.844 L 255.52 100.244 L 274.02 103.244 L 274.02 82.744 L 296.82 59.844 L 319.82 82.844 L 319.82 155.344 L 311.12 155.344 L 311.12 86.344 L 296.82 72.144 L 282.62 86.344 L 282.62 113.544 L 247.92 107.744 L 243.92 82.744 L 181.12 75.744 L 173.12 97.744 L 140.22 103.144 L 140.22 86.544 L 141.22 85.344 C 145.665 79.26 144.709 70.785 139.02 65.844 C 134.866 62.765 130.56 59.895 126.12 57.244 C 121.22 60.244 115.02 64.344 113.32 65.844 C 107.664 70.813 106.751 79.285 111.22 85.344 L 112.12 86.544 L 112.12 107.844 L 78.12 113.544 L 78.12 86.344 L 64.12 72.144 L 49.72 86.344 L 49.72 155.344 L 41.12 155.344 L 41.12 82.744 L 64.02 59.844 L 86.82 82.844 L 86.82 103.244 L 103.42 100.544 L 103.42 89.444 C 97.094 79.773 98.888 66.914 107.62 59.344 C 111.62 55.944 126.12 47.044 126.12 47.044 C 126.12 47.044 140.72 55.944 144.72 59.344 C 153.397 66.902 155.188 79.694 148.92 89.344 L 148.92 93.044 Z M 305.52 301.044 C 295.22 331.444 265.52 383.844 180.42 429.844 C 95.42 383.844 65.62 331.444 55.32 300.944 L 46.32 300.944 C 56.62 332.944 87.32 389.944 178.32 438.544 L 180.42 439.544 L 182.42 438.544 C 273.62 389.944 304.22 333.044 314.52 300.944 L 305.52 300.944 L 305.52 301.044 Z M 404.02 228.144 C 404.02 199.344 423.12 178.144 450.82 178.144 C 463.82 178.144 473.62 182.844 478.82 193.144 L 478.82 180.444 L 497.82 180.444 L 497.82 216.544 L 477.82 219.644 C 476.22 206.444 466.82 198.844 454.02 198.844 C 438.42 198.844 427.82 210.144 427.82 228.144 C 427.82 246.144 437.92 257.444 454.82 257.444 C 465.22 257.444 473.52 253.244 479.72 244.444 L 496.52 257.344 C 486.948 271.04 471.01 278.857 454.32 278.044 C 423.12 278.044 404.02 256.944 404.02 228.144 Z M 505.42 228.144 C 505.42 199.244 523.92 178.144 556.52 178.144 C 589.12 178.144 607.72 199.244 607.72 228.144 C 607.72 257.044 589.12 278.144 556.52 278.144 C 523.92 278.144 505.32 257.144 505.32 228.144 L 505.42 228.144 Z M 556.52 257.644 C 573.92 257.644 583.92 245.944 583.92 228.144 C 583.92 210.544 573.92 198.644 556.52 198.644 C 539.12 198.644 529.22 210.544 529.22 228.144 C 529.22 245.944 539.22 257.644 556.52 257.644 Z M 616.02 258.844 L 625.32 258.844 L 625.32 197.444 L 616.02 197.444 L 616.02 180.444 L 661.42 180.444 C 683.92 180.444 696.92 189.444 696.92 205.844 C 697.231 214.275 692.465 222.074 684.82 225.644 C 694.901 228.33 701.709 237.728 701.12 248.144 C 701.12 266.744 686.52 275.844 663.62 275.844 L 616.12 275.844 L 616.12 258.844 L 616.02 258.844 Z M 661.62 218.944 C 668.92 218.944 673.42 214.944 673.42 208.444 C 673.42 201.944 668.92 197.844 661.62 197.844 L 648.02 197.844 L 648.02 218.944 L 661.62 218.944 Z M 664.82 258.444 C 673.02 258.444 677.22 253.444 677.22 246.944 C 677.22 239.844 672.82 235.344 664.82 235.344 L 648.02 235.344 L 648.02 258.444 L 664.82 258.444 Z M 757.72 257.944 C 769.22 257.944 775.52 250.744 775.52 237.444 L 775.52 197.444 L 766.22 197.444 L 766.22 180.444 L 806.72 180.444 L 806.72 197.444 L 797.42 197.444 L 797.42 237.344 C 797.42 262.644 783.02 278.044 756.92 278.044 C 730.82 278.044 716.62 262.644 716.62 237.344 L 716.62 197.344 L 707.22 197.344 L 707.22 180.444 L 749.22 180.444 L 749.22 197.444 L 739.82 197.444 L 739.82 237.444 C 739.82 250.744 746.22 257.944 757.82 257.944 L 757.72 257.944 Z M 816.82 258.844 L 826.12 258.844 L 826.12 197.444 L 816.82 197.444 L 816.82 180.444 L 864.82 180.444 C 887.32 180.444 901.02 190.044 901.02 209.244 C 901.02 222.244 894.42 230.444 882.82 234.444 L 897.22 258.844 L 905.62 258.844 L 905.62 275.844 L 866.02 275.844 L 866.02 259.344 L 873.22 259.344 L 861.22 237.344 L 848.82 237.344 L 848.82 259.344 L 855.32 259.344 L 855.32 275.844 L 816.82 275.844 L 816.82 258.844 Z M 865.32 220.544 C 873.12 220.544 877.32 216.344 877.32 209.344 C 877.32 202.344 873.12 197.644 865.32 197.644 L 848.82 197.644 L 848.82 220.544 L 865.42 220.544 L 865.32 220.544 Z M 962.22 223.744 L 1010.42 223.744 L 1010.42 227.344 C 1010.42 259.044 992.42 278.044 962.02 278.044 C 930.92 278.044 911.72 257.144 911.72 228.144 C 911.72 199.144 930.92 178.144 958.52 178.144 C 972.32 178.144 983.22 183.144 988.82 194.044 L 988.82 180.444 L 1007.82 180.444 L 1007.82 212.444 L 987.12 215.644 C 984.32 205.644 975.92 198.644 962.32 198.644 C 945.72 198.644 935.52 210.544 935.52 228.144 C 935.52 245.944 945.52 257.644 963.32 257.644 C 975.92 257.644 984.72 251.444 988.12 241.444 L 962.12 241.444 L 962.12 223.744 L 962.22 223.744 Z" style="fill: rgb(0, 22, 49); stroke: rgb(255, 255, 255); stroke-miterlimit: 30; vector-effect: non-scaling-stroke; stroke-dashoffset: -7122.79px; stroke-linecap: round; stroke-width: 2px; stroke-opacity: 0.18;"/>
</svg>